# xmcd
#
# Track frame offsets:
# 150
# 11323
# 27196
# 46664
# 59039
# 77840
# 99553
# 119059
# 125548
# 144245
# 163671
# 173281
# 189320
#
# Disc length: 2657 seconds
#
# Revision: 1
# Processed by: cddbd v1.5.2PL0 Copyright (c) Steve Scherf et al.
# Submitted via: CedeCatalogueitor 2.6.0.6 http://personales.ya.com/cdcatalogueitor
#
DISCID=a00a5f0d
DTITLE=Lushlife - Cssette City
DYEAR=1900
DGENRE=
TTITLE0=Innocenc
TTITLE1=Daylight Into Me
TTITLE2=The Kindness
TTITLE3=Meridian Sound (Part One)
TTITLE4=Another Word For Paradise Ft Camp Lo
TTITLE5=Until The Sun Dies
TTITLE6=The Songbird Athletic Ft Ezra Koening Of Vampiere Weekend
TTITLE7=Meridian Sound (Part Two)
TTITLE8=In Soft Focus Ft Ariel Pink
TTITLE9=The Fall Of The Light Brigade
TTITLE10=Innocence Reprise
TTITLE11=Bottle Rocket
TTITLE12=Meridian Sound (Part Three)
EXTD=
EXTT0=
EXTT1=
EXTT2=
EXTT3=
EXTT4=
EXTT5=
EXTT6=
EXTT7=
EXTT8=
EXTT9=
EXTT10=
EXTT11=
EXTT12=
PLAYORDER=
